<svg xmlns="http://www.w3.org/2000/svg" viewBox="0 0 360 40" fill="none">
  <rect width="360" height="40" fill="#ffffff"/>
  <!-- Play -->
  <path d="M12 12 L12 28 L26 20 Z" fill="#1a1a1a"/>
  <!-- Pause -->
  <rect x="32" y="13" width="3.5" height="14" rx="0.5" fill="#1a1a1a"/>
  <rect x="38.5" y="13" width="3.5" height="14" rx="0.5" fill="#1a1a1a"/>
  <!-- Volume -->
  <path d="M50 16.5 L50 23.5 L55 23.5 L60 28 L60 12 L55 16.5 Z" fill="#1a1a1a"/>
  <path d="M62.5 15.5 C65 17.5 65 22.5 62.5 24.5" stroke="#1a1a1a" stroke-width="1.6" fill="none" stroke-linecap="round"/>
  <path d="M65.5 13 C69.5 16 69.5 24 65.5 27" stroke="#1a1a1a" stroke-width="1.6" fill="none" stroke-linecap="round"/>
  <!-- Progress track -->
  <rect x="78" y="18" width="150" height="4" rx="2" fill="#d0d0d0"/>
  <rect x="78" y="18" width="52" height="4" rx="2" fill="#d81414"/>
  <circle cx="130" cy="20" r="6" fill="#d81414"/>
  <circle cx="130" cy="20" r="2.5" fill="#ffffff"/>
  <!-- Time -->
  <text x="238" y="24" font-family="Arial,Helvetica,sans-serif" font-size="11" fill="#333333">0:26 / 10:36</text>
  <!-- HD -->
  <rect x="308" y="11" width="22" height="18" rx="3" fill="none" stroke="#333" stroke-width="1.4"/>
  <text x="319" y="24" text-anchor="middle" font-family="Arial,Helvetica,sans-serif" font-size="10" font-weight="700" fill="#333">HD</text>
  <!-- Settings gear -->
  <circle cx="345" cy="20" r="7.5" fill="none" stroke="#333" stroke-width="1.6"/>
  <circle cx="345" cy="20" r="2.8" fill="#333"/>
  <g stroke="#333" stroke-width="2" stroke-linecap="round">
    <line x1="345" y1="10.5" x2="345" y2="12.5"/>
    <line x1="345" y1="27.5" x2="345" y2="29.5"/>
    <line x1="335.5" y1="20" x2="337.5" y2="20"/>
    <line x1="352.5" y1="20" x2="354.5" y2="20"/>
  </g>
</svg>
